<?xml version="1.0" standalone="no"?>
<!DOCTYPE svg PUBLIC "-//W3C//DTD SVG 20010904//EN"
 "http://www.w3.org/TR/2001/REC-SVG-20010904/DTD/svg10.dtd">
<svg version="1.0" xmlns="http://www.w3.org/2000/svg"
 width="260.000000pt" height="260.000000pt" viewBox="0 0 260.000000 260.000000"
 preserveAspectRatio="xMidYMid meet">
<metadata>
Created by potrace 1.14, written by Peter Selinger 2001-2017
</metadata>
<g transform="translate(0.000000,260.000000) scale(0.100000,-0.100000)"
fill="#000000" stroke="none">
<path d="M0 1300 l0 -1300 25 0 25 0 0 308 0 307 248 255 248 254 140 -204
c77 -113 238 -348 358 -522 119 -175 222 -320 227 -323 5 -4 9 -22 9 -41 0
-29 3 -34 24 -34 21 0 25 6 28 33 2 27 89 143 423 570 231 295 422 536 425
536 3 0 87 -99 188 -220 l182 -220 0 -349 0 -350 25 0 25 0 0 1300 0 1300 -25
0 c-25 0 -25 -1 -25 -80 l0 -80 -27 0 c-16 0 -287 11 -603 25 -316 14 -578 25
-582 25 -5 0 -8 25 -8 55 0 52 -1 55 -25 55 -24 0 -25 -3 -25 -55 0 -30 -3
-55 -6 -55 -3 0 -275 -27 -604 -60 -329 -33 -603 -60 -609 -60 -7 0 -11 39
-11 115 l0 115 -25 0 -25 0 0 -1300z m1280 1110 c0 -16 -2 -30 -4 -30 -2 0
-275 -25 -606 -55 -331 -30 -607 -55 -611 -55 -5 0 -9 11 -9 25 0 19 5 25 23
26 12 0 276 26 587 58 311 32 577 59 593 60 24 1 27 -3 27 -29z m650 5 c316
-14 585 -25 598 -25 14 0 22 -6 22 -17 0 -15 -35 -16 -457 -10 -252 4 -527 7
-610 7 l-153 0 0 35 c0 21 5 35 13 35 6 0 271 -11 587 -25z m-650 -120 c0 -19
-3 -35 -6 -35 -3 0 -278 -14 -611 -30 -333 -17 -608 -28 -611 -25 -3 3 -3 7
-1 9 4 5 1130 112 1197 115 30 1 32 -1 32 -34z m813 18 l457 -6 0 -84 c0 -60
-3 -83 -12 -83 -7 0 -278 27 -603 60 -324 33 -593 60 -597 60 -5 0 -8 14 -8
30 l0 30 153 0 c83 0 358 -3 610 -7z m-852 -130 c-14 -16 -163 -187 -329 -380
l-302 -353 -68 78 c-324 369 -492 573 -492 597 0 20 5 25 28 26 15 0 268 13
562 28 294 16 556 29 582 30 l46 1 -27 -27z m741 -38 c301 -30 552 -55 558
-55 6 0 10 -29 10 -72 l0 -73 -256 -267 c-140 -148 -259 -268 -264 -268 -6 0
-543 638 -653 777 l-19 24 39 -6 c21 -3 284 -30 585 -60z m-332 -365 c167
-201 292 -355 279 -344 -13 12 -144 120 -290 241 -146 121 -275 233 -287 248
-19 24 -22 40 -22 133 0 60 4 102 9 97 4 -6 144 -174 311 -375z m-457 86 c-48
-50 -154 -159 -236 -243 l-149 -151 -61 -7 -60 -7 24 30 c13 17 146 172 294
345 l270 315 3 -96 3 -95 -88 -91z m-796 -247 l152 -177 -37 -6 c-78 -13 -98
-8 -134 32 -19 21 -96 128 -171 239 -76 111 -142 205 -147 208 -6 3 -10 29
-10 56 l0 49 98 -112 c53 -62 166 -192 249 -289z m880 -86 c-3 -2 -78 -12
-168 -23 -90 -11 -177 -22 -192 -25 -23 -4 7 32 165 195 l193 200 3 -171 c1
-95 1 -174 -1 -176z m606 -123 c4 -4 -117 21 -270 55 l-278 62 -3 171 -2 172
272 -226 c150 -125 277 -230 281 -234z m590 326 c-250 -259 -370 -376 -385
-376 -10 0 -18 2 -18 6 0 3 107 117 238 254 211 222 237 246 240 223 3 -21
-12 -42 -75 -107z m-2368 32 l47 -73 -51 50 c-32 31 -51 58 -51 72 0 13 2 23
4 23 1 0 25 -33 51 -72z m2445 -52 c0 -15 -48 -85 -136 -197 -75 -96 -141
-179 -148 -186 -8 -9 -23 -9 -58 -1 l-47 11 192 198 c106 109 193 199 195 199
1 0 2 -11 2 -24z m-2210 -292 c0 -6 -48 -16 -107 -23 -60 -6 -125 -15 -145
-18 l-38 -6 0 174 0 174 145 -146 c80 -80 145 -150 145 -155z m2207 -161 c-6
-5 -210 38 -220 47 -5 4 42 72 105 151 l113 144 3 -169 c1 -93 1 -171 -1 -173z
m-1267 -188 l0 -406 -128 148 c-70 82 -195 226 -276 321 l-149 174 56 56 57
57 202 26 c112 15 211 27 221 28 16 1 17 -25 17 -404z m381 327 l306 -68 -299
-314 c-164 -173 -308 -324 -319 -335 -19 -19 -19 -16 -19 383 0 315 3 402 13
402 6 0 150 -31 318 -68z m-931 -17 c-32 -33 -35 -34 -52 -18 -27 24 -17 37
33 44 24 3 46 7 48 7 3 1 -10 -14 -29 -33z m-180 -3 c0 -5 -9 -17 -20 -27 -19
-17 -21 -17 -41 1 l-21 19 24 6 c34 10 58 10 58 1z m-137 -64 c43 -61 66 -22
-178 -306 l-180 -210 -3 261 c-1 143 -1 261 1 263 3 3 270 40 308 43 9 0 32
-22 52 -51z m215 -35 l-32 -33 -25 24 -24 25 29 34 29 34 28 -25 27 -26 -32
-33z m1397 7 c4 -6 -105 -126 -242 -267 -136 -141 -294 -303 -351 -362 -71
-74 -102 -99 -100 -84 3 20 662 723 679 723 4 0 11 -5 14 -10z m178 -9 c18 -7
18 -8 -1 -31 l-20 -25 -22 20 c-12 11 -26 28 -32 38 -9 17 -7 18 24 12 18 -4
41 -11 51 -14z m-1215 -351 c161 -186 292 -345 292 -352 0 -7 -146 133 -325
312 l-325 324 27 28 c15 15 30 28 33 28 3 0 138 -153 298 -340z m1439 303
l123 -27 0 -142 0 -143 -164 136 -164 136 25 34 c14 18 33 33 42 33 8 0 71
-12 138 -27z m-1882 -3 c10 -11 14 -20 9 -20 -5 0 -15 9 -22 20 -7 11 -11 20
-9 20 2 0 12 -9 22 -20z m1593 -43 c2 -11 -732 -961 -794 -1027 -12 -12 -14
10 -14 155 l1 170 371 383 371 383 31 -24 c17 -14 32 -31 34 -40z m-1636 1
c15 -22 7 -30 -216 -261 -141 -145 -232 -232 -234 -223 -3 15 411 506 427 506
5 0 15 -10 23 -22z m776 -867 l-3 -173 -347 508 c-191 278 -345 511 -341 516
3 6 160 -144 350 -334 l343 -344 -2 -173z m1272 495 c0 -22 -4 -36 -8 -30 -5
5 -56 65 -113 134 l-104 125 113 -94 c109 -92 112 -95 112 -135z"/>
</g>
</svg>
